<svg width="48" height="48" viewBox="0 0 48 48" fill="none" xmlns="http://www.w3.org/2000/svg">
  <!-- 背景 -->
  <circle cx="24" cy="24" r="20" fill="#FFB800"/>
  
  <!-- 狗狗頭部 -->
  <circle cx="24" cy="22" r="8" fill="#D2691E"/>
  
  <!-- 狗狗耳朵 -->
  <ellipse cx="18" cy="16" rx="3" ry="5" fill="#8B4513"/>
  <ellipse cx="30" cy="16" rx="3" ry="5" fill="#8B4513"/>
  
  <!-- 狗狗眼睛 -->
  <circle cx="20" cy="20" r="2" fill="#000"/>
  <circle cx="28" cy="20" r="2" fill="#000"/>
  <circle cx="20.5" cy="19.5" r="0.8" fill="#FFF"/>
  <circle cx="28.5" cy="19.5" r="0.8" fill="#FFF"/>
  
  <!-- 狗狗鼻子 -->
  <circle cx="24" cy="24" r="1.5" fill="#000"/>
  
  <!-- 狗狗嘴巴 -->
  <path d="M24 26 C20 28, 28 28, 24 26" fill="#000"/>
  
  <!-- 快遞帽 -->
  <rect x="20" y="12" width="8" height="4" fill="#FF4444" rx="1"/>
  <circle cx="24" cy="12" r="1.5" fill="#FFD700"/>
  
  <!-- 包裹 -->
  <rect x="32" y="28" width="8" height="6" fill="#8B4513" rx="1"/>
  <line x1="32" y1="31" x2="40" y2="31" stroke="#FFF" stroke-width="1"/>
  <line x1="36" y1="28" x2="36" y2="34" stroke="#FFF" stroke-width="1"/>
  
  <!-- 信件符號 -->
  <rect x="8" y="32" width="10" height="8" fill="#FFF" stroke="#007cff" stroke-width="1"/>
  <path d="M8 32 L13 36 L18 32" stroke="#007cff" stroke-width="1" fill="none"/>
</svg>
